<svg width="120" height="120" viewBox="0 0 120 120" fill="none" xmlns="http://www.w3.org/2000/svg">
<path d="M62.4 54.5C51.05 51.55 47.4 48.5 47.4 43.75C47.4 38.3 52.45 34.5 60.9 34.5C69.8 34.5 73.1 38.75 73.4 45H84.45C84.1 36.4 78.85 28.5 68.4 25.95V15H53.4V25.8C43.7 27.9 35.9 34.2 35.9 43.85C35.9 55.4 45.45 61.15 59.4 64.5C71.9 67.5 74.4 71.9 74.4 76.55C74.4 80 71.95 85.5 60.9 85.5C50.6 85.5 46.55 80.9 46 75H35C35.6 85.95 43.8 92.1 53.4 94.15V105H68.4V94.25C78.15 92.4 85.9 86.75 85.9 76.5C85.9 62.3 73.75 57.45 62.4 54.5Z" fill="white"/>
</svg>
